<svg width="35" height="26" viewBox="0 0 35 26" fill="none" xmlns="http://www.w3.org/2000/svg">
<path d="M27.3707 20.3501C26.812 20.3501 26.2659 20.5158 25.8013 20.8262C25.3368 21.1366 24.9747 21.5777 24.7609 22.0939C24.5471 22.6101 24.4912 23.1781 24.6002 23.726C24.7092 24.274 24.9782 24.7773 25.3733 25.1724C25.7683 25.5674 26.2717 25.8365 26.8196 25.9455C27.3676 26.0545 27.9356 25.9985 28.4517 25.7847C28.9679 25.5709 29.4091 25.2088 29.7195 24.7443C30.0299 24.2798 30.1955 23.7336 30.1955 23.1749C30.1955 22.4257 29.8979 21.7072 29.3682 21.1775C28.8384 20.6477 28.1199 20.3501 27.3707 20.3501Z" fill="#292D32"/>
<path d="M12.3596 3.25758C12.1436 2.33175 11.6209 1.50614 10.8765 0.914784C10.1321 0.323432 9.20965 0.0010615 8.25894 1.19025e-05H6.26608C5.9598 -0.00133677 5.6641 0.111971 5.43714 0.317648C5.21019 0.523324 5.06841 0.80648 5.0397 1.11142C5.03456 1.26559 5.0605 1.41923 5.11597 1.56318C5.17144 1.70712 5.25531 1.83843 5.36259 1.94929C5.46987 2.06014 5.59836 2.14827 5.74041 2.20843C5.88246 2.26859 6.03517 2.29955 6.18943 2.29947H8.25894C8.69359 2.30432 9.11422 2.45392 9.45432 2.72461C9.79442 2.9953 10.0346 3.37164 10.1368 3.79412L10.6734 6.09357V6.28519C10.6674 6.53489 10.7487 6.77885 10.9033 6.97503L12.9728 15.713C13.1786 16.5541 13.6604 17.3019 14.3413 17.8368C15.0221 18.3718 15.8627 18.663 16.7286 18.6639H27.4211C28.5324 18.6552 29.6094 18.2779 30.4833 17.5913C31.3571 16.9047 31.9785 15.9475 32.2499 14.8698L34.626 5.13546H12.8195L12.3596 3.25758Z" fill="#292D32"/>
<path d="M16.797 20.3501C16.2383 20.3501 15.6921 20.5158 15.2276 20.8262C14.7631 21.1366 14.401 21.5777 14.1872 22.0939C13.9734 22.6101 13.9175 23.1781 14.0264 23.726C14.1354 24.274 14.4045 24.7773 14.7995 25.1724C15.1946 25.5674 15.6979 25.8365 16.2459 25.9455C16.7939 26.0545 17.3618 25.9985 17.878 25.7847C18.3942 25.5709 18.8353 25.2088 19.1457 24.7443C19.4561 24.2798 19.6218 23.7336 19.6218 23.1749C19.6218 22.4257 19.3242 21.7072 18.7944 21.1775C18.2647 20.6477 17.5462 20.3501 16.797 20.3501Z" fill="#292D32"/>
<path d="M4.80959 8.85336H7.99051C8.29543 8.85336 8.58787 8.73223 8.80349 8.51662C9.0191 8.301 9.14024 8.00856 9.14024 7.70364C9.14559 7.55121 9.11951 7.39931 9.06363 7.2574C9.00774 7.11549 8.92325 6.98659 8.8154 6.87875C8.70755 6.7709 8.57866 6.6864 8.43674 6.63052C8.29483 6.57463 8.14293 6.54855 7.99051 6.55391H4.80959C4.65717 6.54855 4.50527 6.57463 4.36336 6.63052C4.22144 6.6864 4.09255 6.7709 3.9847 6.87875C3.87685 6.98659 3.79236 7.11549 3.73647 7.2574C3.68059 7.39931 3.65451 7.55121 3.65986 7.70364C3.65986 8.00856 3.781 8.301 3.99661 8.51662C4.21223 8.73223 4.50467 8.85336 4.80959 8.85336Z" fill="#292D32"/>
<path d="M10.2895 12.6861C10.2949 12.5336 10.2688 12.3817 10.2129 12.2398C10.157 12.0979 10.0725 11.969 9.96466 11.8612C9.85681 11.7533 9.72792 11.6688 9.58601 11.6129C9.4441 11.5571 9.2922 11.531 9.13977 11.5363H1.74319C1.59076 11.531 1.43886 11.5571 1.29695 11.6129C1.15504 11.6688 1.02614 11.7533 0.918296 11.8612C0.810448 11.969 0.725952 12.0979 0.670067 12.2398C0.614182 12.3817 0.588105 12.5336 0.593458 12.6861C0.593458 12.991 0.71459 13.2834 0.930206 13.499C1.14582 13.7147 1.43826 13.8358 1.74319 13.8358H9.13977C9.4447 13.8358 9.73714 13.7147 9.95275 13.499C10.1684 13.2834 10.2895 12.991 10.2895 12.6861Z" fill="#292D32"/>
<path d="M10.6723 16.5173H5.57522C5.42279 16.5119 5.27089 16.538 5.12898 16.5939C4.98707 16.6498 4.85818 16.7343 4.75033 16.8421C4.64248 16.95 4.55798 17.0789 4.5021 17.2208C4.44621 17.3627 4.42014 17.5146 4.42549 17.667C4.42549 17.9719 4.54662 18.2644 4.76224 18.48C4.97785 18.6956 5.27029 18.8167 5.57522 18.8167H10.6723C10.9773 18.8167 11.2697 18.6956 11.4853 18.48C11.7009 18.2644 11.8221 17.9719 11.8221 17.667C11.8274 17.5146 11.8014 17.3627 11.7455 17.2208C11.6896 17.0789 11.6051 16.95 11.4972 16.8421C11.3894 16.7343 11.2605 16.6498 11.1186 16.5939C10.9767 16.538 10.8248 16.5119 10.6723 16.5173Z" fill="#292D32"/>
</svg>
