<svg width="19" height="19" viewBox="0 0 19 19" fill="none" xmlns="http://www.w3.org/2000/svg">
<path d="M9.5 0.03479C4.25334 0.03479 0 4.28813 0 9.53479C0 13.9899 3.06736 17.7284 7.20518 18.7551V12.438H5.24628V9.53479H7.20518V8.28383C7.20518 5.05041 8.66856 3.55169 11.8431 3.55169C12.445 3.55169 13.4835 3.66987 13.9084 3.78767V6.41917C13.6842 6.39561 13.2947 6.38383 12.8109 6.38383C11.2533 6.38383 10.6514 6.97397 10.6514 8.50803V9.53479H13.7545L13.2213 12.438H10.6514V18.9653C15.3554 18.3972 19.0004 14.392 19.0004 9.53479C19 4.28813 14.7467 0.03479 9.5 0.03479Z" fill="white"/>
</svg>
