<svg width="19" height="19" viewBox="0 0 19 19" fill="none" xmlns="http://www.w3.org/2000/svg">
<path d="M9.50049 1.71074C12.0388 1.71074 12.3394 1.72187 13.3376 1.76641C14.2653 1.80723 14.7663 1.96309 15.1003 2.09297C15.5419 2.26367 15.861 2.47148 16.1913 2.80176C16.5253 3.13574 16.7294 3.45117 16.9001 3.89277C17.03 4.22676 17.1858 4.73145 17.2267 5.65547C17.2712 6.65742 17.2823 6.95801 17.2823 9.49258C17.2823 12.0309 17.2712 12.3314 17.2267 13.3297C17.1858 14.2574 17.03 14.7584 16.9001 15.0924C16.7294 15.534 16.5216 15.8531 16.1913 16.1834C15.8573 16.5174 15.5419 16.7215 15.1003 16.8922C14.7663 17.0221 14.2616 17.1779 13.3376 17.2188C12.3356 17.2633 12.0351 17.2744 9.50049 17.2744C6.96221 17.2744 6.66162 17.2633 5.66338 17.2188C4.73565 17.1779 4.23467 17.0221 3.90068 16.8922C3.45908 16.7215 3.13994 16.5137 2.80967 16.1834C2.47568 15.8494 2.27158 15.534 2.10088 15.0924C1.971 14.7584 1.81514 14.2537 1.77432 13.3297C1.72979 12.3277 1.71865 12.0271 1.71865 9.49258C1.71865 6.9543 1.72979 6.65371 1.77432 5.65547C1.81514 4.72773 1.971 4.22676 2.10088 3.89277C2.27158 3.45117 2.47939 3.13203 2.80967 2.80176C3.14365 2.46777 3.45908 2.26367 3.90068 2.09297C4.23467 1.96309 4.73936 1.80723 5.66338 1.76641C6.66162 1.72187 6.96221 1.71074 9.50049 1.71074ZM9.50049 0C6.92139 0 6.59854 0.0111328 5.58545 0.0556641C4.57607 0.100195 3.88213 0.263477 3.28096 0.497266C2.65381 0.742188 2.12314 1.06504 1.59619 1.5957C1.06553 2.12266 0.742676 2.65332 0.497754 3.27676C0.263965 3.88164 0.100684 4.57187 0.0561524 5.58125C0.0116211 6.59805 0.000488281 6.9209 0.000488281 9.5C0.000488281 12.0791 0.0116211 12.402 0.0561524 13.415C0.100684 14.4244 0.263965 15.1184 0.497754 15.7195C0.742676 16.3467 1.06553 16.8773 1.59619 17.4043C2.12314 17.9312 2.65381 18.2578 3.27725 18.499C3.88213 18.7328 4.57236 18.8961 5.58174 18.9406C6.59482 18.9852 6.91768 18.9963 9.49678 18.9963C12.0759 18.9963 12.3987 18.9852 13.4118 18.9406C14.4212 18.8961 15.1151 18.7328 15.7163 18.499C16.3397 18.2578 16.8704 17.9312 17.3974 17.4043C17.9243 16.8773 18.2509 16.3467 18.4921 15.7232C18.7259 15.1184 18.8892 14.4281 18.9337 13.4188C18.9782 12.4057 18.9894 12.0828 18.9894 9.50371C18.9894 6.92461 18.9782 6.60176 18.9337 5.58867C18.8892 4.5793 18.7259 3.88535 18.4921 3.28418C18.2583 2.65332 17.9355 2.12266 17.4048 1.5957C16.8778 1.06875 16.3472 0.742188 15.7237 0.500977C15.1188 0.267187 14.4286 0.103906 13.4192 0.059375C12.4024 0.0111328 12.0796 0 9.50049 0Z" fill="white"/>
<path d="M9.50049 4.62012C6.80635 4.62012 4.62061 6.80586 4.62061 9.5C4.62061 12.1941 6.80635 14.3799 9.50049 14.3799C12.1946 14.3799 14.3804 12.1941 14.3804 9.5C14.3804 6.80586 12.1946 4.62012 9.50049 4.62012ZM9.50049 12.6654C7.75264 12.6654 6.33506 11.2479 6.33506 9.5C6.33506 7.75215 7.75264 6.33457 9.50049 6.33457C11.2483 6.33457 12.6659 7.75215 12.6659 9.5C12.6659 11.2479 11.2483 12.6654 9.50049 12.6654Z" fill="white"/>
<path d="M15.7126 4.4271C15.7126 5.05796 15.2005 5.56636 14.5733 5.56636C13.9425 5.56636 13.4341 5.05425 13.4341 4.4271C13.4341 3.79624 13.9462 3.28784 14.5733 3.28784C15.2005 3.28784 15.7126 3.79995 15.7126 4.4271Z" fill="white"/>
</svg>
