<svg width="24" height="24" viewBox="0 0 24 24" fill="none" xmlns="http://www.w3.org/2000/svg">
<g clip-path="url(#clip0_6323_5020)">
<path fill-rule="evenodd" clip-rule="evenodd" d="M12 6.75C10.7573 6.75 9.75 7.75725 9.75 9C9.75 10.2427 10.7573 11.25 12 11.25C13.2427 11.25 14.25 10.2427 14.25 9C14.25 7.75725 13.2427 6.75 12 6.75ZM12 12.75C9.92925 12.75 8.25 11.0715 8.25 9C8.25 6.9285 9.92925 5.25 12 5.25C14.0707 5.25 15.75 6.9285 15.75 9C15.75 11.0715 14.0707 12.75 12 12.75ZM12 0C7.02975 0 3 4.02975 3 9C3 12.7635 10.5037 24.0082 12 24C13.473 24.0082 21 12.7125 21 9C21 4.02975 16.9702 0 12 0Z" fill="#4E575B"/>
</g>
<defs>
<clipPath id="clip0_6323_5020">
<rect width="24" height="24" fill="white"/>
</clipPath>
</defs>
</svg>
