<svg width="19" height="19" viewBox="0 0 19 19" fill="none" xmlns="http://www.w3.org/2000/svg">
<path d="M17.939 13.3658C17.8218 13.0446 17.5961 12.8709 17.34 12.732C17.2922 12.706 17.2488 12.6799 17.2097 12.6626C17.1316 12.6235 17.0534 12.5844 16.9753 12.5454C16.1765 12.1199 15.5514 11.5903 15.1217 10.9565C15.0001 10.7785 14.8916 10.5875 14.8048 10.3922C14.7657 10.288 14.77 10.2272 14.7961 10.1708C14.8221 10.1274 14.8569 10.0926 14.9003 10.0623C15.0392 9.97109 15.1781 9.87993 15.2736 9.81915C15.4429 9.70628 15.5818 9.61946 15.6686 9.55869C15.9942 9.32861 16.2243 9.08551 16.3676 8.81202C16.5716 8.43001 16.5976 7.98287 16.4414 7.57915C16.2243 7.00613 15.686 6.6545 15.0305 6.6545C14.8916 6.6545 14.757 6.66753 14.6181 6.69791C14.5834 6.7066 14.5443 6.71528 14.5096 6.72396C14.5139 6.33326 14.5052 5.92086 14.4705 5.5128C14.349 4.08458 13.8454 3.33791 13.3245 2.74319C12.9902 2.36985 12.5995 2.05295 12.161 1.80551C11.371 1.35404 10.4724 1.12396 9.49562 1.12396C8.51888 1.12396 7.62461 1.35404 6.83454 1.80551C6.39609 2.05295 6.00539 2.36985 5.67113 2.74319C5.1502 3.33791 4.65097 4.08892 4.52508 5.5128C4.49035 5.92086 4.48167 6.33326 4.48601 6.72396C4.45128 6.71528 4.41655 6.7066 4.37748 6.69791C4.24291 6.66753 4.104 6.6545 3.96942 6.6545C3.31392 6.6545 2.77562 7.01047 2.55857 7.57915C2.40229 7.98287 2.42834 8.43001 2.63237 8.81202C2.77562 9.08551 3.0057 9.32861 3.33128 9.55869C3.4181 9.61946 3.55268 9.70628 3.72632 9.81915C3.81748 9.87993 3.95206 9.96675 4.08663 10.0536C4.13438 10.084 4.17345 10.123 4.20384 10.1708C4.22989 10.2272 4.23423 10.288 4.19082 10.4009C4.104 10.5919 3.99981 10.7785 3.87826 10.9522C3.45717 11.5686 2.84942 12.0939 2.07671 12.515C1.66865 12.732 1.24322 12.8753 1.0609 13.3658C0.926323 13.7348 1.01314 14.1516 1.35609 14.5075C1.48198 14.6378 1.62958 14.7506 1.7902 14.8374C2.12446 15.0198 2.48043 15.163 2.85376 15.2629C2.9319 15.2846 3.00136 15.315 3.06648 15.3584C3.19237 15.4669 3.175 15.6319 3.33997 15.875C3.42245 16.0009 3.53097 16.1094 3.65252 16.1962C4.00415 16.4393 4.39919 16.4523 4.81593 16.4697C5.19361 16.4827 5.61903 16.5001 6.10958 16.6607C6.31361 16.7258 6.52198 16.856 6.76508 17.008C7.35113 17.3683 8.14989 17.8588 9.49128 17.8588C10.8327 17.8588 11.6358 17.364 12.2262 17.0036C12.4693 16.8561 12.6776 16.7258 12.873 16.6607C13.3592 16.5001 13.789 16.4827 14.1666 16.4697C14.5834 16.4523 14.9784 16.4393 15.33 16.1962C15.4776 16.092 15.5992 15.9618 15.686 15.8055C15.8076 15.6015 15.8032 15.4582 15.9161 15.3584C15.9769 15.315 16.0463 15.2846 16.1158 15.2672C16.4891 15.1674 16.8538 15.0241 17.1924 14.8374C17.3617 14.7463 17.5179 14.6247 17.6482 14.4815L17.6525 14.4771C17.9911 14.1298 18.0736 13.7218 17.939 13.3658ZM16.7496 14.004C16.0246 14.4033 15.5384 14.3599 15.1651 14.603C14.8438 14.8071 15.0348 15.2498 14.8048 15.4105C14.5183 15.6058 13.6761 15.3974 12.5908 15.7578C11.6922 16.0529 11.1235 16.9081 9.50865 16.9081C7.89376 16.9081 7.3381 16.0573 6.42648 15.7578C5.3412 15.3974 4.49903 15.6102 4.21252 15.4105C3.98245 15.2498 4.16911 14.8071 3.85221 14.603C3.47454 14.3599 2.99268 14.4033 2.26772 14.004C1.80322 13.7478 2.06803 13.5916 2.21997 13.5178C4.85066 12.2458 5.27175 10.2793 5.28911 10.1317C5.31082 9.95373 5.33686 9.81481 5.14151 9.63683C4.95485 9.46318 4.12136 8.9466 3.88694 8.78597C3.50493 8.51683 3.33562 8.25202 3.46152 7.9221C3.54834 7.69636 3.76105 7.60954 3.98245 7.60954C4.0519 7.60954 4.12136 7.61822 4.19082 7.63125C4.6119 7.72241 5.01996 7.93078 5.25438 7.99156C5.28477 8.00024 5.31082 8.00458 5.34121 8.00458C5.4671 8.00458 5.51051 7.93946 5.50182 7.79621C5.47578 7.33605 5.41066 6.44179 5.48446 5.60396C5.5843 4.45357 5.9533 3.88055 6.39609 3.37698C6.6088 3.13388 7.60291 2.08334 9.50865 2.08334C11.4144 2.08334 12.4085 3.12954 12.6212 3.37264C13.064 3.87621 13.433 4.44923 13.5328 5.59962C13.6066 6.43745 13.5415 7.33171 13.5111 7.79187C13.5024 7.9438 13.5459 8.00024 13.6717 8.00024C13.7021 8.00024 13.7282 7.9959 13.7586 7.98722C13.993 7.93078 14.401 7.71807 14.8221 7.62691C14.8916 7.60954 14.961 7.6052 15.0305 7.6052C15.2519 7.6052 15.4646 7.69202 15.5514 7.91776C15.6773 8.24768 15.508 8.51249 15.126 8.78163C14.8959 8.94225 14.0624 9.45884 13.8714 9.63249C13.6761 9.81047 13.7021 9.94939 13.7238 10.1274C13.7412 10.275 14.1623 12.2415 16.793 13.5134C16.9493 13.5872 17.2097 13.7478 16.7496 14.004Z" fill="white"/>
</svg>
