<svg width="19" height="19" viewBox="0 0 19 19" fill="none" xmlns="http://www.w3.org/2000/svg">
<path d="M0.000488281 19L1.33603 14.121C0.511905 12.6928 0.0788633 11.0738 0.079655 9.41371C0.08203 4.22354 4.30557 0 9.49495 0C12.0132 0.000791667 14.3772 0.981667 16.1552 2.76133C17.9325 4.541 18.911 6.9065 18.9102 9.42242C18.9079 14.6134 14.6843 18.8369 9.49495 18.8369C7.91953 18.8361 6.36707 18.4411 4.99195 17.6906L0.000488281 19ZM5.22311 15.9861C6.54995 16.7738 7.81661 17.2457 9.49178 17.2465C13.8048 17.2465 17.3182 13.7362 17.3206 9.42083C17.3222 5.09675 13.8254 1.59125 9.49811 1.58967C5.18195 1.58967 1.6709 5.09992 1.66932 9.4145C1.66853 11.176 2.1847 12.4949 3.05157 13.8747L2.2607 16.7628L5.22311 15.9861ZM14.2378 11.6605C14.1792 11.5623 14.0225 11.5037 13.7866 11.3857C13.5514 11.2678 12.3948 10.6986 12.1787 10.6202C11.9634 10.5418 11.8066 10.5023 11.6491 10.7382C11.4923 10.9733 11.0411 11.5037 10.9041 11.6605C10.7672 11.8172 10.6294 11.837 10.3943 11.719C10.1592 11.6011 9.40074 11.3533 8.5022 10.5513C7.80315 9.9275 7.33053 9.15721 7.19357 8.92129C7.05661 8.68617 7.17932 8.55871 7.29649 8.44154C7.40257 8.33625 7.53161 8.16683 7.64957 8.02908C7.76911 7.89292 7.80791 7.79475 7.88707 7.63721C7.96545 7.48046 7.92666 7.34271 7.86728 7.22475C7.80791 7.10758 7.33766 5.94938 7.14211 5.47833C6.95053 5.01996 6.75657 5.08171 6.61249 5.07458L6.16124 5.06667C6.00449 5.06667 5.74957 5.12525 5.53424 5.36117C5.3189 5.59708 4.71091 6.1655 4.71091 7.32371C4.71091 8.48192 5.55403 9.60054 5.6712 9.75729C5.78916 9.91404 7.32974 12.2906 9.6897 13.3095C10.251 13.5518 10.6896 13.6966 11.0308 13.8051C11.5944 13.984 12.1074 13.9587 12.5128 13.8985C12.9648 13.8312 13.9045 13.3293 14.1009 12.7799C14.2972 12.2297 14.2972 11.7586 14.2378 11.6605Z" fill="white"/>
</svg>
